HIERARCHY
ROOT Hips
{
	OFFSET 0.000000 0.000000 0.000000
	CHANNELS 6 Xposition Yposition Zposition Zrotation Yrotation Xrotation 
	JOINT LHipJoint
	{
		OFFSET 0.000000 0.000000 0.000000
		CHANNELS 3 Zrotation Yrotation Xrotation
		JOINT LeftUpLeg
		{
			OFFSET 1.363060 -1.794630 0.839290
			CHANNELS 3 Zrotation Yrotation Xrotation
			JOINT LeftLeg
			{
				OFFSET 2.448110 -6.726130 0.000000
				CHANNELS 3 Zrotation Yrotation Xrotation
				JOINT LeftFoot
				{
					OFFSET 2.562200 -7.039590 0.000000
					CHANNELS 3 Zrotation Yrotation Xrotation
					JOINT LeftToeBase
					{
						OFFSET 0.157640 -0.433110 2.322550
						CHANNELS 3 Zrotation Yrotation Xrotation
						End Site
						{
							OFFSET 0.000000 0.000000 0.000000
						}
					}
				}
			}
		}
	}
	JOINT RHipJoint
	{
		OFFSET 0.000000 0.000000 0.000000
		CHANNELS 3 Zrotation Yrotation Xrotation
		JOINT RightUpLeg
		{
			OFFSET -1.305520 -1.794630 0.839290
			CHANNELS 3 Zrotation Yrotation Xrotation
			JOINT RightLeg
			{
				OFFSET -2.542530 -6.985550 0.000000
				CHANNELS 3 Zrotation Yrotation Xrotation
				JOINT RightFoot
				{
					OFFSET -2.568260 -7.056230 0.000000
					CHANNELS 3 Zrotation Yrotation Xrotation
					JOINT RightToeBase
					{
						OFFSET -0.164730 -0.452590 2.363150
						CHANNELS 3 Zrotation Yrotation Xrotation
						End Site
						{
							OFFSET 0.000000 0.000000 0.000000
						}
					}
				}
			}
		}
	}
	JOINT LowerBack
	{
		OFFSET 0.000000 0.000000 0.000000
		CHANNELS 3 Zrotation Yrotation Xrotation
		JOINT Spine
		{
			OFFSET 0.028270 2.035590 -0.193380
			CHANNELS 3 Zrotation Yrotation Xrotation
			JOINT Spine1
			{
				OFFSET 0.056720 2.048850 -0.042750
				CHANNELS 3 Zrotation Yrotation Xrotation
				JOINT Neck
				{
					OFFSET 0.000000 0.000000 0.000000
					CHANNELS 3 Zrotation Yrotation Xrotation
					JOINT Neck1
					{
						OFFSET -0.054170 1.746240 0.172020
						CHANNELS 3 Zrotation Yrotation Xrotation
						JOINT Head
						{
							OFFSET 0.104070 1.761360 -0.123970
							CHANNELS 3 Zrotation Yrotation Xrotation
							End Site
							{
								OFFSET 0.000000 0.000000 0.000000
							}
						}
					}
				}
				JOINT LeftShoulder
				{
					OFFSET 0.000000 0.000000 0.000000
					CHANNELS 3 Zrotation Yrotation Xrotation
					JOINT LeftArm
					{
						OFFSET 3.362410 1.200890 -0.311210
						CHANNELS 3 Zrotation Yrotation Xrotation
						JOINT LeftForeArm
						{
							OFFSET 4.983000 -0.000000 -0.000000
							CHANNELS 3 Zrotation Yrotation Xrotation
							JOINT LeftHand
							{
								OFFSET 3.483560 -0.000000 -0.000000
								CHANNELS 3 Zrotation Yrotation Xrotation
								JOINT LeftFingerBase
								{
									OFFSET 0.000000 0.000000 0.000000
									CHANNELS 3 Zrotation Yrotation Xrotation
									JOINT LeftHandIndex1
									{
										OFFSET 0.715260 -0.000000 -0.000000
										CHANNELS 3 Zrotation Yrotation Xrotation
										End Site
										{
											OFFSET 0.000000 0.000000 0.000000
										}
									}
								}
								JOINT LThumb
								{
									OFFSET 0.000000 0.000000 0.000000
									CHANNELS 3 Zrotation Yrotation Xrotation
									End Site
									{
										OFFSET 0.000000 0.000000 0.000000
									}
								}
							}
						}
					}
				}
				JOINT RightShoulder
				{
					OFFSET 0.000000 0.000000 0.000000
					CHANNELS 3 Zrotation Yrotation Xrotation
					JOINT RightArm
					{
						OFFSET -3.136600 1.374050 -0.404650
						CHANNELS 3 Zrotation Yrotation Xrotation
						JOINT RightForeArm
						{
							OFFSET -5.241900 -0.000000 -0.000000
							CHANNELS 3 Zrotation Yrotation Xrotation
							JOINT RightHand
							{
								OFFSET -3.444170 -0.000000 -0.000000
								CHANNELS 3 Zrotation Yrotation Xrotation
								JOINT RightFingerBase
								{
									OFFSET 0.000000 0.000000 0.000000
									CHANNELS 3 Zrotation Yrotation Xrotation
									JOINT RightHandIndex1
									{
										OFFSET -0.622530 -0.000000 -0.000000
										CHANNELS 3 Zrotation Yrotation Xrotation
										End Site
										{
											OFFSET 0.000000 0.000000 0.000000
										}
									}
								}
								JOINT RThumb
								{
									OFFSET 0.000000 0.000000 0.000000
									CHANNELS 3 Zrotation Yrotation Xrotation
									End Site
									{
										OFFSET 0.000000 0.000000 0.000000
									}
								}
							}
						}
					}
				}
			}
		}
	}
}
MOTION
Frames: 11
Frame Time: 0.008333
1.144917 17.396531 2.143508 6.395618 2.290402 2.675743 1.589554 2.836294 1.748234 -30.045492 0.881663 7.578876 0.063112 4.324497 15.995480 0.693556 -1.644297 -5.489007 0.005092 -0.428292 -1.176987 -3.502955 -2.784686 0.954407 10.956413 13.682846 -30.408128 -0.333644 -5.188478 13.799938 2.356630 -13.513782 -1.664859 -0.054462 1.504538 -4.138198 -5.044232 -2.191075 4.591954 1.135717 -3.506255 -1.510297 6.438926 -1.434066 -2.982137 -8.013741 -0.760670 -12.457528 2.250974 0.271630 17.279560 2.649984 -0.663192 10.481183 -7.159274 2.848244 -2.332662 -78.148321 -4.398927 26.225037 13.364670 -24.473560 -3.716805 -0.810907 -2.749253 12.504905 12.976742 21.618593 5.563363 -7.125000 0.000000 0.000000 -17.111581 54.270118 -3.987343 5.910037 -2.679479 -2.274668 82.261649 -7.572658 8.089722 -12.596504 19.220470 -2.707820 1.054537 -0.894854 8.701959 -14.705251 14.245769 -4.188181 7.125000 0.000000 0.000000 7.901951 -14.602348 5.710089
1.134115 17.390368 2.238610 6.378061 2.552368 2.707952 1.590824 2.855433 1.767476 -29.886827 0.847757 8.008207 0.044506 4.252937 15.815720 0.731309 -1.832998 -5.471436 0.013687 -0.687488 -1.889749 -3.492488 -2.793567 0.944523 10.696494 14.005687 -29.840689 -0.218089 -4.706229 12.478132 2.436674 -13.815152 -1.926826 -0.047593 1.399656 -3.849246 -5.060307 -2.291166 4.566348 1.154403 -3.640558 -1.536431 6.499608 -1.499009 -3.013529 -8.018287 -0.754609 -12.419248 2.241098 0.279672 17.322184 2.646893 -0.663165 10.491160 -7.148476 2.849744 -2.338247 -78.077123 -4.477129 26.229382 13.444241 -24.595888 -3.758866 -0.819434 -2.751668 12.443905 13.108636 21.667691 5.637247 -7.125000 0.000000 0.000000 -16.998004 54.348336 -3.992335 5.908264 -2.687090 -2.280206 82.298686 -7.785765 7.899787 -12.572377 19.188262 -2.696158 1.061878 -0.876485 8.529372 -14.708166 14.096083 -4.144473 7.125000 0.000000 0.000000 7.896077 -14.770870 5.677077
1.122806 17.383324 2.333445 6.348198 2.802042 2.732074 1.592724 2.874651 1.785666 -29.708139 0.860273 8.403501 0.030981 4.194259 15.672228 0.766499 -2.011012 -5.449411 0.029479 -1.049514 -2.885614 -3.484256 -2.803316 0.935069 10.477928 14.317763 -29.257021 -0.123219 -4.256806 11.264976 2.510387 -14.078497 -2.287834 -0.036955 1.228927 -3.379043 -5.064796 -2.382719 4.575279 1.174431 -3.763529 -1.557441 6.557565 -1.558843 -3.046199 -7.997447 -0.767124 -12.463500 2.207095 0.264617 17.370525 2.624955 -0.673709 10.526100 -7.133931 2.847254 -2.344808 -78.015901 -4.560814 26.254976 13.546385 -24.748155 -3.809617 -0.822032 -2.767813 12.383564 13.193346 21.886436 5.725945 -7.125000 0.000000 0.000000 -17.036206 54.591593 -4.104059 5.908140 -2.694063 -2.287083 82.335360 -7.984031 7.724421 -12.556143 19.166132 -2.687650 1.069666 -0.858180 8.289079 -14.705157 13.967218 -4.105089 7.125000 0.000000 0.000000 7.894895 -14.917250 5.651262
1.111136 17.376829 2.427762 6.315932 3.030647 2.753386 1.594980 2.893210 1.802203 -29.525424 0.873859 8.772462 0.020918 4.146321 15.557460 0.805565 -2.204932 -5.436275 0.053847 -1.451125 -3.991954 -3.476699 -2.813687 0.924005 10.405071 14.418223 -28.755692 -0.040197 -3.848179 10.168256 2.535781 -14.140699 -2.494843 -0.036318 1.209371 -3.325314 -5.068917 -2.463785 4.573377 1.193186 -3.871036 -1.566588 6.613383 -1.613793 -3.044105 -7.991006 -0.788635 -12.525305 2.186453 0.240532 17.402219 2.611005 -0.687271 10.557341 -7.120324 2.844619 -2.349737 -77.949001 -4.678052 26.306388 13.646870 -24.898225 -3.861266 -0.820625 -2.781302 12.293293 13.247637 22.064694 5.791018 -7.125000 0.000000 0.000000 -17.083527 54.786147 -4.197870 5.909516 -2.699360 -2.290918 82.375036 -8.132299 7.523180 -12.535025 19.135485 -2.677161 1.074693 -0.836710 8.087233 -14.681215 13.793692 -4.046461 7.125000 0.000000 0.000000 7.909457 -15.114563 5.627940
1.098724 17.371461 2.521016 6.278729 3.215974 2.768926 1.597969 2.910415 1.815346 -29.334435 0.889644 9.087333 0.017970 4.120445 15.501693 0.852590 -2.431521 -5.441398 0.095832 -1.934046 -5.325212 -3.470528 -2.825336 0.909631 10.631512 14.084013 -28.423489 0.018487 -3.523345 9.310697 2.461925 -13.789738 -2.385529 -0.056223 1.500334 -4.127047 -5.072278 -2.523312 4.549223 1.209327 -3.946781 -1.551368 6.664811 -1.658710 -2.970601 -8.014140 -0.828625 -12.623168 2.193256 0.197899 17.399719 2.613464 -0.707034 10.580981 -7.108645 2.841686 -2.351315 -77.870437 -4.864210 26.410830 13.743947 -25.043785 -3.914758 -0.810991 -2.789336 12.141548 13.239446 22.159787 5.807567 -7.125000 0.000000 0.000000 -17.149578 54.880660 -4.254890 5.913976 -2.701215 -2.288507 82.420877 -8.177869 7.268792 -12.503875 19.087345 -2.662601 1.074050 -0.808739 7.964361 -14.614278 13.528428 -3.948307 7.125000 0.000000 0.000000 7.956359 -15.416495 5.609737
1.086435 17.366196 2.613689 6.237348 3.393160 2.777514 1.601774 2.927363 1.828391 -29.149361 0.884324 9.410066 0.016262 4.098820 15.457816 0.896269 -2.646196 -5.434124 0.147397 -2.443187 -6.733804 -3.465684 -2.836184 0.896470 10.855309 13.772167 -28.131529 0.068101 -3.245720 8.579288 2.394730 -13.473929 -2.247536 -0.082203 1.826072 -5.025774 -5.071718 -2.577490 4.536944 1.224855 -4.015669 -1.538423 6.715207 -1.699278 -2.913493 -8.053970 -0.867535 -12.683859 2.221822 0.155663 17.384185 2.628987 -0.725492 10.590884 -7.099551 2.840282 -2.352367 -77.797555 -5.043789 26.493724 13.828393 -25.170641 -3.963607 -0.803824 -2.787953 12.023525 13.234344 22.145047 5.800958 -7.125000 0.000000 0.000000 -17.146962 54.861942 -4.247271 5.917955 -2.701447 -2.285013 82.470445 -8.223973 6.995884 -12.466085 19.028681 -2.644647 1.074464 -0.786554 7.879757 -14.569168 13.306781 -3.869594 7.125000 0.000000 0.000000 7.987295 -15.667174 5.588893
1.074598 17.361308 2.704211 6.180476 3.540161 2.760322 1.608606 2.943357 1.841068 -28.986222 0.800742 9.761950 0.019157 4.092963 15.458030 0.927543 -2.816688 -5.380870 0.234487 -3.049557 -8.421759 -3.465764 -2.844066 0.887805 11.069302 13.543250 -27.988808 0.084079 -3.143161 8.315684 2.352240 -13.288479 -2.003194 -0.130713 2.280767 -6.284187 -5.056617 -2.611832 4.568703 1.238115 -4.059131 -1.533914 6.761774 -1.723713 -2.917183 -8.155713 -0.902443 -12.606709 2.331092 0.114896 17.320319 2.692957 -0.739109 10.549844 -7.100043 2.844549 -2.351470 -77.745739 -5.198971 26.496706 13.865999 -25.228133 -3.995240 -0.805804 -2.751650 12.030554 13.240694 21.723009 5.708478 -7.125000 0.000000 0.000000 -16.889710 54.423322 -3.999948 5.920150 -2.695660 -2.277509 82.533833 -8.272059 6.654300 -12.403674 18.930989 -2.614106 1.078797 -0.785832 7.937064 -14.605004 13.246884 -3.862975 7.125000 0.000000 0.000000 7.959021 -15.727787 5.558255
1.062808 17.356374 2.794798 6.123784 3.687619 2.747001 1.615540 2.958860 1.853605 -28.826069 0.708873 10.111577 0.022580 4.088938 15.463472 0.958014 -2.988989 -5.309015 0.316911 -3.617294 -10.002651 -3.466569 -2.851486 0.880069 11.278079 13.321097 -27.870369 0.096826 -3.061409 8.107403 2.309009 -13.101093 -1.763323 -0.175397 2.697883 -7.438667 -5.043101 -2.647955 4.599438 1.252581 -4.105378 -1.531842 6.811874 -1.748957 -2.925535 -8.251374 -0.935061 -12.530840 2.431373 0.076941 17.253496 2.751869 -0.751722 10.507714 -7.099915 2.848563 -2.350952 -77.696459 -5.345967 26.497937 13.905252 -25.288067 -4.027442 -0.808759 -2.716040 12.036844 13.258014 21.309916 5.622984 -7.125000 0.000000 0.000000 -16.627018 53.996167 -3.757149 5.922884 -2.690419 -2.270436 82.590825 -8.324172 6.317488 -12.338591 18.829688 -2.582518 1.082827 -0.787623 8.001103 -14.639357 13.209430 -3.862799 7.125000 0.000000 0.000000 7.931875 -15.763156 5.532763
1.051451 17.351006 2.885991 6.068748 3.839320 2.769572 1.623421 2.969812 1.864834 -28.693609 0.540153 10.440273 0.030896 4.101907 15.517384 0.981046 -3.178071 -5.064664 0.356059 -3.826793 -10.590771 -3.474097 -2.854618 0.880941 11.438493 13.161659 -27.977104 0.079607 -3.172600 8.412124 2.258916 -12.895764 -1.564916 -0.184617 2.766534 -7.629395 -5.044270 -2.700590 4.620677 1.278227 -4.177454 -1.552380 6.894728 -1.781692 -2.977118 -8.290636 -0.946451 -12.466853 2.448290 0.065055 17.159259 2.763878 -0.755032 10.455469 -7.094054 2.850227 -2.353955 -77.670697 -5.417055 26.482923 13.959779 -25.370635 -4.064926 -0.820752 -2.686841 12.036284 13.377050 20.979757 5.602275 -7.125000 0.000000 0.000000 -16.313880 53.675323 -3.556302 5.930614 -2.690231 -2.267366 82.588514 -8.413631 6.024933 -12.248728 18.694920 -2.541220 1.084050 -0.812731 8.127573 -14.659967 13.380079 -3.922372 7.125000 0.000000 0.000000 7.915185 -15.564436 5.554985
1.040094 17.345639 2.977184 6.013712 3.991020 2.792144 1.631302 2.980763 1.876062 -28.561149 0.371432 10.768969 0.039213 4.114876 15.571297 1.004077 -3.367153 -4.820314 0.395207 -4.036292 -11.178891 -3.481625 -2.857751 0.881813 11.598906 13.002220 -28.083839 0.062389 -3.283791 8.716846 2.208823 -12.690435 -1.366509 -0.193837 2.835185 -7.820124 -5.045438 -2.753225 4.641917 1.303873 -4.249530 -1.572918 6.977583 -1.814427 -3.028700 -8.329898 -0.957840 -12.402866 2.465207 0.053168 17.065022 2.775887 -0.758341 10.403225 -7.088192 2.851891 -2.356958 -77.644934 -5.488144 26.467909 14.014307 -25.453204 -4.102411 -0.832745 -2.657643 12.035723 13.496087 20.649599 5.581567 -7.125000 0.000000 0.000000 -16.000742 53.354479 -3.355455 5.938344 -2.690042 -2.264295 82.586203 -8.503090 5.732378 -12.158865 18.560152 -2.499923 1.085273 -0.837840 8.254044 -14.680576 13.550728 -3.981946 7.125000 0.000000 0.000000 7.898495 -15.365717 5.577207
1.030620 17.338201 3.074920 6.041197 4.103289 2.756948 1.647666 2.986814 1.881562 -28.542733 0.241025 11.129576 0.061117 4.161237 15.725156 1.009508 -3.477478 -4.560924 0.405607 -4.088394 -11.325565 -3.489236 -2.857566 0.884077 11.639773 12.884045 -28.222845 0.021499 -3.515570 9.349341 2.150849 -12.455226 -1.176009 -0.175608 2.695026 -7.431052 -5.090946 -2.799629 4.652268 1.297317 -4.314057 -1.578217 6.985266 -1.846820 -3.036896 -8.242161 -0.948929 -12.465687 2.417009 0.052073 17.105698 2.736809 -0.756960 10.436575 -7.070081 2.854272 -2.367510 -77.537444 -5.440609 26.553991 14.162978 -25.678641 -4.184684 -0.823421 -2.676151 11.884440 13.518879 20.872117 5.642273 -7.125000 0.000000 0.000000 -16.101277 53.589377 -3.471678 5.932639 -2.705045 -2.271906 82.642502 -8.731716 5.656820 -12.155550 18.565835 -2.501620 1.077978 -0.832790 8.147851 -14.557802 13.544757 -3.945381 7.125000 0.000000 0.000000 7.988347 -15.383889 5.638766
